<svg width="24" height="32" viewBox="0 0 24 32" fill="none" xmlns="http://www.w3.org/2000/svg">
<path d="M5.98553 12.9968C5.98553 12.7315 6.09092 12.4771 6.27851 12.2895C6.4661 12.1019 6.72052 11.9965 6.98581 11.9965H16.9886C17.2539 11.9965 17.5083 12.1019 17.6959 12.2895C17.8835 12.4771 17.9889 12.7315 17.9889 12.9968C17.9889 13.2621 17.8835 13.5165 17.6959 13.7041C17.5083 13.8917 17.2539 13.9971 16.9886 13.9971H6.98581C6.72052 13.9971 6.4661 13.8917 6.27851 13.7041C6.09092 13.5165 5.98553 13.2621 5.98553 12.9968ZM6.98581 17.9982C6.72052 17.9982 6.4661 18.1036 6.27851 18.2912C6.09092 18.4788 5.98553 18.7332 5.98553 18.9985C5.98553 19.2638 6.09092 19.5182 6.27851 19.7058C6.4661 19.8934 6.72052 19.9988 6.98581 19.9988H16.9886C17.2539 19.9988 17.5083 19.8934 17.6959 19.7058C17.8835 19.5182 17.9889 19.2638 17.9889 18.9985C17.9889 18.7332 17.8835 18.4788 17.6959 18.2912C17.5083 18.1036 17.2539 17.9982 16.9886 17.9982H6.98581ZM5.98553 25.0002C5.98553 24.7349 6.09092 24.4804 6.27851 24.2929C6.4661 24.1053 6.72052 23.9999 6.98581 23.9999H16.9886C17.2539 23.9999 17.5083 24.1053 17.6959 24.2929C17.8835 24.4804 17.9889 24.7349 17.9889 25.0002C17.9889 25.2654 17.8835 25.5199 17.6959 25.7075C17.5083 25.895 17.2539 26.0004 16.9886 26.0004H6.98581C6.72052 26.0004 6.4661 25.895 6.27851 25.7075C6.09092 25.5199 5.98553 25.2654 5.98553 25.0002ZM6.98581 5.99487C6.72052 5.99487 6.4661 6.10026 6.27851 6.28785C6.09092 6.47544 5.98553 6.72986 5.98553 6.99515C5.98553 7.26044 6.09092 7.51487 6.27851 7.70245C6.4661 7.89004 6.72052 7.99543 6.98581 7.99543H11.9872V5.99487H6.98581Z" fill="#F4FAFD"/>
<path fill-rule="evenodd" clip-rule="evenodd" d="M23.9907 9.13587C24.0124 8.97757 23.996 8.81636 23.9427 8.66574L23.9166 8.5397C23.843 8.23317 23.7214 7.94016 23.5565 7.67146C23.3725 7.37138 23.1124 7.11131 22.5923 6.59116L17.4108 1.40972C16.8927 0.889577 16.6326 0.629504 16.3305 0.443453C16.0254 0.25663 15.6894 0.12587 15.3383 0.0573452C15.1876 0.00402069 15.0264 -0.0124432 14.8681 0.00933188C14.6461 0.00132966 14.376 0.00132966 14.0179 0.00132966H9.59667C6.23573 0.00132966 4.55527 0.00132967 3.27491 0.655511C2.14834 1.23295 1.23162 2.14967 0.654182 3.27624C2.98106e-07 4.5606 0 6.23706 0 9.598V22.4016C0 25.7625 2.98106e-07 27.443 0.654182 28.7233C1.23162 29.8499 2.14834 30.7666 3.27491 31.344C4.55927 31.9982 6.23573 31.9982 9.59667 31.9982H14.398C17.7589 31.9982 19.4394 31.9982 20.7198 31.344C21.8479 30.7688 22.7653 29.8515 23.3405 28.7233C23.9947 27.439 23.9947 25.7625 23.9947 22.4016V9.9761C23.9947 9.62 23.9947 9.34993 23.9847 9.12586L23.9907 9.13587ZM18.1691 29.9417C17.2688 30.0157 16.1085 30.0177 14.388 30.0177H9.58667C7.87219 30.0177 6.70586 30.0157 5.80561 29.9417C4.92937 29.8696 4.47925 29.7396 4.16716 29.5816C3.41433 29.198 2.80227 28.5859 2.41867 27.8331C2.25863 27.521 2.12859 27.0709 2.05857 26.1946C1.98455 25.2944 1.98255 24.134 1.98255 22.4136V9.61C1.98255 7.89552 1.98455 6.7292 2.05857 5.82895C2.13059 4.95271 2.26063 4.50258 2.41867 4.19049C2.80278 3.43829 3.41495 2.82611 4.16716 2.44201C4.47925 2.28196 4.92937 2.15193 5.80561 2.08191C6.70586 2.00789 7.86619 2.00589 9.58667 2.00589H13.9879V9.00783C13.9879 9.27312 14.0933 9.52755 14.2809 9.71514C14.4685 9.90272 14.7229 10.0081 14.9882 10.0081H21.9901V22.4116C21.9901 24.126 21.9901 25.2924 21.9141 26.1926C21.8441 27.0689 21.714 27.519 21.554 27.8331C21.1701 28.5851 20.558 29.1965 19.8055 29.5795C19.4934 29.7396 19.0453 29.8696 18.167 29.9396L18.1691 29.9417ZM15.9884 2.93414L21.1699 8.11558H15.9884V2.93414Z" fill="#F4FAFD"/>
</svg>
