<svg width="26" height="29" viewBox="0 0 26 29" fill="none" xmlns="http://www.w3.org/2000/svg">
<path d="M11.6663 12.1663C14.6117 12.1663 16.9994 9.77857 16.9994 6.83315C16.9994 3.88773 14.6117 1.5 11.6663 1.5C8.72086 1.5 6.33313 3.88773 6.33313 6.83315C6.33313 9.77857 8.72086 12.1663 11.6663 12.1663Z" stroke="#D00004" stroke-width="1.5"/>
<path d="M15.6662 16.6022C14.3532 16.3089 13.0116 16.1627 11.6663 16.1662C5.77584 16.1662 1 18.8528 1 22.166C1 25.4792 1 28.1658 11.6663 28.1658C19.2487 28.1658 21.4406 26.8085 22.0753 24.8326" stroke="#D00004" stroke-width="1.5"/>
<path d="M23.4379 16.3941C23.9331 16.8894 24.326 17.4773 24.594 18.1244C24.862 18.7714 24.9999 19.4649 24.9999 20.1653C24.9999 20.8657 24.862 21.5592 24.594 22.2063C24.326 22.8534 23.9331 23.4413 23.4379 23.9365C22.9426 24.4318 22.3547 24.8246 21.7076 25.0926C21.0606 25.3607 20.367 25.4986 19.6667 25.4986C18.9663 25.4986 18.2728 25.3607 17.6257 25.0926C16.9786 24.8246 16.3907 24.4318 15.8954 23.9365L23.4365 16.3954M15.8941 23.9365C14.8939 22.9363 14.332 21.5798 14.332 20.1653C14.332 19.4649 14.47 18.7714 14.738 18.1244C15.006 17.4773 15.3989 16.8894 15.8941 16.3941C16.3894 15.8989 16.9773 15.506 17.6244 15.238C18.2714 14.97 18.9649 14.832 19.6653 14.832C21.0798 14.832 22.4363 15.3939 23.4365 16.3941" stroke="#D00004" stroke-width="1.5" stroke-linejoin="round"/>
</svg>
