<svg width="24" height="26" viewBox="0 0 24 26" fill="none" xmlns="http://www.w3.org/2000/svg">
<path fill-rule="evenodd" clip-rule="evenodd" d="M15.4372 13.4382C15.2387 12.8766 14.871 12.3904 14.3847 12.0466C13.8984 11.7027 13.3174 11.5181 12.7218 11.5182V10.7983H11.282V11.5182C10.5183 11.5182 9.78589 11.8216 9.24587 12.3616C8.70585 12.9017 8.40247 13.6341 8.40247 14.3978C8.40247 15.1615 8.70585 15.8939 9.24587 16.4339C9.78589 16.974 10.5183 17.2773 11.282 17.2773V20.1569C10.6557 20.1569 10.1223 19.7573 9.92359 19.1973C9.89411 19.1056 9.84656 19.0209 9.78374 18.9479C9.72092 18.875 9.64411 18.8154 9.55786 18.7727C9.47161 18.7299 9.37766 18.7049 9.28158 18.6992C9.1855 18.6934 9.08923 18.7069 8.99847 18.739C8.90771 18.771 8.82431 18.821 8.75319 18.8858C8.68207 18.9507 8.62468 19.0292 8.58442 19.1166C8.54415 19.204 8.52183 19.2987 8.51877 19.3949C8.51571 19.4911 8.53197 19.5869 8.5666 19.6767C8.76508 20.2383 9.13281 20.7245 9.61913 21.0683C10.1054 21.4122 10.6864 21.5968 11.282 21.5967V22.3166H12.7218V21.5967C13.4855 21.5967 14.2179 21.2933 14.7579 20.7533C15.298 20.2132 15.6013 19.4808 15.6013 18.7171C15.6013 17.9534 15.298 17.221 14.7579 16.681C14.2179 16.1409 13.4855 15.8376 12.7218 15.8376V12.958C13.0196 12.9579 13.31 13.0502 13.5532 13.222C13.7963 13.3939 13.9802 13.6369 14.0795 13.9176C14.1431 14.0977 14.2756 14.2451 14.4478 14.3274C14.5331 14.3682 14.6256 14.3918 14.72 14.3968C14.8145 14.4018 14.9089 14.3882 14.9981 14.3567C15.0872 14.3253 15.1693 14.2765 15.2396 14.2133C15.3099 14.1501 15.3671 14.0737 15.4079 13.9884C15.4487 13.9031 15.4722 13.8106 15.4773 13.7162C15.4823 13.6218 15.4687 13.5273 15.4372 13.4382ZM11.282 12.958C10.9002 12.958 10.534 13.1097 10.2639 13.3797C9.99393 13.6497 9.84224 14.0159 9.84224 14.3978C9.84224 14.7796 9.99393 15.1458 10.2639 15.4159C10.534 15.6859 10.9002 15.8376 11.282 15.8376V12.958ZM12.7218 20.1569C13.1036 20.1569 13.4699 20.0052 13.7399 19.7352C14.0099 19.4652 14.1616 19.099 14.1616 18.7171C14.1616 18.3353 14.0099 17.969 13.7399 17.699C13.4699 17.429 13.1036 17.2773 12.7218 17.2773V20.1569Z" fill="#F4FAFD"/>
<path fill-rule="evenodd" clip-rule="evenodd" d="M4.19324 1.88683C5.95985 1.02224 8.85812 0 12.0299 0C15.1355 0 17.9575 0.979768 19.7148 1.83283L19.8141 1.88107C20.3439 2.14311 20.7715 2.39075 21.0725 2.5916L18.4132 6.47899C24.5438 12.7463 29.2792 25.9138 12.0299 25.9138C-5.21929 25.9138 -0.611289 12.9853 5.57255 6.47899L2.93056 2.5916C3.13429 2.45842 3.39273 2.30364 3.70084 2.13951C3.85346 2.05744 4.01759 1.97273 4.19324 1.88683ZM16.7042 6.42788L18.8329 3.3158C16.8532 3.45834 14.4977 3.92339 12.2301 4.57993C10.6103 5.04786 8.81061 4.97659 7.14407 4.66919C6.72409 4.59144 6.30701 4.49875 5.89362 4.39132L7.2758 6.42644C10.2381 7.48108 13.7411 7.48108 16.7042 6.42788ZM6.44433 7.65241C9.9106 8.9914 14.0766 8.9914 17.5429 7.65097C18.9894 9.1765 20.1997 10.9097 21.1337 12.7931C22.1069 14.7786 22.6368 16.7633 22.5504 18.4738C22.4669 20.1245 21.8175 21.5347 20.3346 22.5829C18.789 23.675 16.1895 24.474 12.0292 24.474C7.86467 24.474 5.25292 23.6886 3.69292 22.6088C2.19915 21.5743 1.54334 20.1828 1.45047 18.5544C1.35329 16.8627 1.8716 14.888 2.84129 12.8889C3.76635 10.9826 5.05711 9.14762 6.44433 7.65241ZM5.61646 2.81908C6.19237 2.99042 6.7942 3.13943 7.40467 3.25245C8.95243 3.53753 10.5045 3.57928 11.8291 3.19558C13.3726 2.74573 14.9426 2.39206 16.53 2.13663C15.2054 1.73781 13.6562 1.43978 12.0292 1.43978C9.54921 1.43978 7.23621 2.13159 5.61646 2.81908Z" fill="#F4FAFD"/>
</svg>
