<svg width="26" height="29" viewBox="0 0 26 29" fill="none" xmlns="http://www.w3.org/2000/svg">
<path d="M11.6666 12.1667C14.6122 12.1667 17 9.77885 17 6.83333C17 3.88781 14.6122 1.5 11.6666 1.5C8.72113 1.5 6.33331 3.88781 6.33331 6.83333C6.33331 9.77885 8.72113 12.1667 11.6666 12.1667Z" stroke="#2489B0" stroke-width="1.5"/>
<path d="M15.6667 16.6027C14.3536 16.3094 13.012 16.1632 11.6667 16.1667C5.776 16.1667 1 18.8534 1 22.1667C1 25.48 1 28.1667 11.6667 28.1667C19.2493 28.1667 21.4413 26.8094 22.076 24.8334" stroke="#2489B0" stroke-width="1.5"/>
<path d="M19.6666 25.5C22.6122 25.5 25 23.1122 25 20.1667C25 17.2212 22.6122 14.8334 19.6666 14.8334C16.7211 14.8334 14.3333 17.2212 14.3333 20.1667C14.3333 23.1122 16.7211 25.5 19.6666 25.5Z" stroke="#2489B0" stroke-width="1.5"/>
<path d="M19.6667 18.3893V21.9439M17.8893 20.1666H21.444" stroke="#2489B0" stroke-width="1.5" stroke-linecap="round" stroke-linejoin="round"/>
</svg>
