<svg width="26" height="26" viewBox="0 0 26 26" fill="none" xmlns="http://www.w3.org/2000/svg">
<path d="M1.04736 21.4705C2.24819 17.5371 5.96679 14.5877 10.2365 14.5877C12.9263 14.5877 15.397 15.7578 17.1577 17.6062M10.2332 11.3062C11.6042 11.3062 12.919 10.7616 13.8884 9.7922C14.8578 8.82278 15.4024 7.50797 15.4024 6.137C15.4024 4.76604 14.8578 3.45122 13.8884 2.48181C12.919 1.51239 11.6042 0.967773 10.2332 0.967773C8.86225 0.967773 7.54743 1.51239 6.57801 2.48181C5.60859 3.45122 5.06398 4.76604 5.06398 6.137C5.06398 7.50797 5.60859 8.82278 6.57801 9.7922C7.54743 10.7616 8.86225 11.3062 10.2332 11.3062Z" stroke="#F4FAFD" stroke-width="1.5" stroke-miterlimit="10" stroke-linecap="round" stroke-linejoin="round"/>
<path d="M14.0581 21.0168H25.0474M21.2849 17.2522L25.0474 21.0146L21.2849 24.7771" stroke="#F4FAFD" stroke-width="1.5" stroke-linecap="round" stroke-linejoin="round"/>
</svg>
