<svg width="32" height="25" viewBox="0 0 32 25" fill="none" xmlns="http://www.w3.org/2000/svg">
<path d="M21.25 10.75C21.25 10.0606 21.1142 9.37787 20.8504 8.74091C20.5865 8.10395 20.1998 7.5252 19.7123 7.03769C19.2248 6.55018 18.646 6.16347 18.0091 5.89963C17.3721 5.6358 16.6894 5.5 16 5.5C15.3106 5.5 14.6279 5.6358 13.9909 5.89963C13.354 6.16347 12.7752 6.55018 12.2877 7.03769C11.8002 7.5252 11.4135 8.10395 11.1496 8.74091C10.8858 9.37787 10.75 10.0606 10.75 10.75C10.75 12.1424 11.3031 13.4777 12.2877 14.4623C13.2723 15.4469 14.6076 16 16 16C17.3924 16 18.7277 15.4469 19.7123 14.4623C20.6969 13.4777 21.25 12.1424 21.25 10.75Z" stroke="#2489B0" stroke-width="1.5" stroke-linecap="round" stroke-linejoin="round"/>
<path d="M21.2245 11.275C21.7085 11.424 22.217 11.499 22.75 11.5M22.75 11.5C23.766 11.4998 24.76 11.2049 25.6117 10.651C26.4633 10.0971 27.136 9.30797 27.548 8.37935C27.9601 7.45073 28.0938 6.4225 27.9331 5.41936C27.7724 4.41623 27.324 3.48127 26.6425 2.72789C25.9609 1.97451 25.0754 1.43506 24.0933 1.17497C23.1112 0.914873 22.0748 0.94531 21.1096 1.26259C20.1445 1.57986 19.2922 2.17034 18.656 2.96243C18.0198 3.75451 17.6271 4.71416 17.5255 5.725M22.75 11.5C27.307 11.5 31 14.8585 31 19M14.4745 5.725C14.3661 4.64863 13.9278 3.63204 13.2196 2.81427C12.5114 1.9965 11.5678 1.41748 10.518 1.15641C9.46812 0.895334 8.36327 0.964951 7.3545 1.35574C6.34573 1.74653 5.48232 2.4394 4.88235 3.3396C4.28238 4.2398 3.97515 5.30337 4.00268 6.38483C4.03021 7.4663 4.39115 8.51285 5.03615 9.38136C5.68114 10.2499 6.57869 10.8979 7.60603 11.2369C8.63337 11.5758 9.74034 11.5892 10.7755 11.275M24.25 23.5C24.25 19.3585 20.557 16 16 16C11.443 16 7.75004 19.3585 7.75004 23.5" stroke="#2489B0" stroke-width="1.5" stroke-linecap="round" stroke-linejoin="round"/>
<path d="M9.25 11.5C4.693 11.5 1 14.8585 1 19" stroke="#2489B0" stroke-width="1.5" stroke-linecap="round" stroke-linejoin="round"/>
</svg>
